<svg width="184" height="138" viewBox="0 0 184 138" fill="none" xmlns="http://www.w3.org/2000/svg">
<path d="M91.9469 0.138916C101.141 14.6011 110.291 29.0882 119.467 43.5579C119.916 44.4932 120.941 45.2959 120.86 46.3863C118.208 45.4435 115.586 44.3857 112.875 43.6079C110.092 42.9227 106.918 42.7726 104.388 44.3206C102.303 45.5585 101.192 47.8943 100.713 50.18C100.257 53.2385 100.091 56.332 99.9751 59.423C99.4083 68.3784 96.6449 77.1587 92.1409 84.9312C87.1381 93.5515 79.9009 100.884 71.3235 106.028C61.8645 111.747 50.8009 114.721 39.7448 114.763C37.921 114.781 35.9033 114.431 34.6035 113.048C33.3062 111.662 32.7016 109.827 31.9358 108.136C22.6204 86.9568 13.0556 65.8901 3.55879 44.7908C2.68972 42.7626 1.64684 40.7995 0.954102 38.7013C1.0725 38.5838 1.30425 38.3512 1.42012 38.2337C10.7456 43.9805 20.1164 49.6573 29.4596 55.3742C36.1124 59.4705 42.8357 63.4618 49.4457 67.6256C47.5387 67.9282 45.5588 68.0783 43.8106 68.9686C40.2033 70.6141 37.6968 74.4703 37.8404 78.4291C37.8178 80.0121 38.3619 81.5276 38.974 82.9681C40.7928 87.4795 42.9188 91.8584 44.9769 96.2648C45.3371 97.1401 46.3472 97.6678 47.2843 97.5077C57.8945 95.9572 67.686 90.0503 74.2683 81.6877C80.513 73.8902 83.9792 63.8944 83.6114 53.9187C83.4704 51.3529 83.0169 48.6595 81.4148 46.5614C79.9941 44.6607 77.6413 43.5404 75.2784 43.4754C70.855 43.2228 66.7741 45.2209 62.6303 46.4313C72.3992 30.9988 82.168 15.5639 91.9469 0.138916Z" fill="#232323"/>
<path d="M141.877 63.0492C155.452 54.7765 169.002 46.4663 182.58 38.1962C182.695 38.2762 182.93 38.4338 183.046 38.5138C182.33 40.5769 181.285 42.5201 180.446 44.5407C170.458 66.8754 160.382 89.1726 150.427 111.525C149.986 112.453 149.661 113.533 148.779 114.153C147.59 114.913 146.122 114.683 144.784 114.758C136.355 114.721 127.871 113.253 120.11 109.919C112.764 106.836 106.164 102.179 100.454 96.6825C99.3656 95.5671 97.9499 94.5318 97.6249 92.9238C97.567 91.4258 98.4285 90.0979 99.0658 88.7975C101.386 84.5311 103.26 80.0496 105.326 75.6607C106.011 76.4035 106.502 77.2913 107.066 78.1215C111.686 85.2213 118.314 91.1032 126.176 94.4293C129.294 95.8022 132.579 96.7575 135.912 97.4577C136.615 97.5753 137.36 97.7303 138.061 97.5003C138.655 97.1451 138.904 96.4699 139.179 95.8747C141.146 91.3558 143.267 86.9043 145.189 82.3679C146.089 80.1822 146.26 77.6764 145.509 75.4256C144.522 72.0721 141.721 69.3212 138.333 68.3759C137.229 67.9933 135.98 68.0358 134.99 67.3606C137.194 65.79 139.6 64.5146 141.877 63.0492Z" fill="#232323"/>
<path d="M36.5635 121.083C38.6216 120.895 40.7049 121.01 42.7679 121.048C77.0269 121.04 111.283 121.048 145.542 121.043C146.353 121.075 147.22 120.923 147.986 121.263C148.55 121.485 148.505 122.186 148.585 122.681C148.719 126.437 148.328 130.193 148.608 133.947C148.59 134.87 148.769 135.862 148.361 136.728C148.008 137.39 147.22 137.561 146.53 137.588C138.391 137.638 130.254 137.516 122.115 137.541C98.6 137.538 75.0872 137.541 51.5745 137.538C46.9571 137.643 42.3397 137.568 37.7223 137.596C37.0321 137.561 36.1907 137.531 35.7297 136.943C35.2108 136.318 35.3141 135.447 35.3141 134.697C35.4728 130.778 35.3897 126.857 35.3368 122.936C35.2461 122.131 35.6869 121.205 36.5635 121.083Z" fill="#232323"/>
</svg>
